<svg width="86" height="88" viewBox="0 0 86 88" fill="none" xmlns="http://www.w3.org/2000/svg">
<path d="M18.0343 9.6376L43 1.52573L67.9657 9.6376L83.3954 30.8747V57.1253L67.9657 78.3624L43 86.4743L18.0343 78.3624L2.60457 57.1253V30.8747L18.0343 9.6376Z" stroke="white"/>
<path d="M40.9334 2.01047C41.1008 2.23005 41.4146 2.27231 41.6342 2.10486L42.2604 1.62732L42.9029 2.08272C43.1282 2.2424 43.4402 2.18922 43.5999 1.96393L46.5539 4.0577C46.3942 4.28299 46.4474 4.59507 46.6727 4.75475L48.5576 6.09077C48.7829 6.25046 49.095 6.19727 49.2547 5.97198L52.2087 8.06575C52.049 8.29104 52.1022 8.60313 52.3275 8.76281L53.1379 9.33723L53.3889 10.0747C53.4779 10.3361 53.762 10.4759 54.0234 10.3869L54.9139 13.003C54.6525 13.0919 54.5127 13.376 54.6017 13.6374L55.208 15.4188C55.297 15.6802 55.5811 15.82 55.8425 15.731L56.733 18.347C56.4715 18.436 56.3318 18.7201 56.4207 18.9815L57.0271 20.7628C57.1161 21.0242 57.4001 21.164 57.6616 21.075L58.552 23.6911C58.2906 23.7801 58.1508 24.0641 58.2398 24.3255L58.8462 26.1069C58.9352 26.3683 59.2192 26.5081 59.4806 26.4191L60.3711 29.0352C60.1097 29.1241 59.9699 29.4082 60.0589 29.6696L60.3369 30.4862L60.3548 31.515C60.3596 31.7911 60.5874 32.011 60.8635 32.0062L60.9233 35.4349C60.6472 35.4398 60.4273 35.6675 60.4321 35.9436L60.4708 38.1579C60.4756 38.434 60.7033 38.6539 60.9794 38.6491L61.0393 42.0778C60.7632 42.0826 60.5433 42.3104 60.5481 42.5865L60.5867 44.8007C60.5915 45.0768 60.8193 45.2968 61.0954 45.2919L61.1552 48.7207C60.8791 48.7255 60.6592 48.9532 60.664 49.2293L60.7027 51.4436C60.7075 51.7197 60.9352 51.9396 61.2113 51.9348L61.2712 55.3635C60.9951 55.3683 60.7752 55.5961 60.78 55.8722L60.7979 56.901L60.5487 57.7268C60.4688 57.9912 60.6185 58.2701 60.8828 58.35L60.0842 60.9955C59.8198 60.9157 59.5408 61.0653 59.461 61.3297L58.9172 63.1311C58.8374 63.3954 58.987 63.6744 59.2513 63.7543L58.4527 66.3998C58.1883 66.32 57.9093 66.4696 57.8295 66.734L57.2857 68.5354C57.2059 68.7997 57.3555 69.0787 57.6199 69.1586L56.8212 71.8041C56.5569 71.7243 56.2779 71.8739 56.1981 72.1382L55.6542 73.9397C55.5744 74.204 55.724 74.483 55.9884 74.5628L55.1898 77.2084C54.9254 77.1286 54.6464 77.2782 54.5666 77.5425L54.3415 78.2883L53.5516 78.8907C53.332 79.0581 53.2897 79.3719 53.4572 79.5914L50.5781 81.787C50.4106 81.5675 50.0969 81.5252 49.8773 81.6926L48.0401 83.0936C47.8206 83.2611 47.7783 83.5748 47.9457 83.7944L45.0666 85.99C44.8992 85.7704 44.5854 85.7282 44.3658 85.8956L43.7396 86.3732L43.0971 85.9178C42.8718 85.7581 42.5598 85.8113 42.4001 86.0365L39.4461 83.9428C39.6058 83.7175 39.5526 83.4054 39.3273 83.2457L37.4424 81.9097C37.2171 81.75 36.905 81.8032 36.7453 82.0285L33.7913 79.9347C33.951 79.7094 33.8978 79.3973 33.6725 79.2377L32.8621 78.6632L32.6111 77.9258C32.5221 77.6644 32.238 77.5246 31.9766 77.6136L31.0861 74.9975C31.3475 74.9085 31.4873 74.6245 31.3983 74.3631L30.792 72.5817C30.703 72.3203 30.4189 72.1805 30.1575 72.2695L29.267 69.6535C29.5285 69.5645 29.6682 69.2804 29.5793 69.019L28.9729 67.2376C28.8839 66.9762 28.5999 66.8365 28.3384 66.9254L27.448 64.3094C27.7094 64.2204 27.8492 63.9363 27.7602 63.6749L27.1538 61.8936C27.0648 61.6322 26.7808 61.4924 26.5194 61.5814L25.6289 58.9653C25.8903 58.8763 26.0301 58.5923 25.9411 58.3309L25.6631 57.5143L25.6452 56.4854C25.6404 56.2093 25.4126 55.9894 25.1365 55.9942L25.0767 52.5655C25.3528 52.5607 25.5727 52.333 25.5679 52.0569L25.5292 49.8426C25.5244 49.5665 25.2967 49.3466 25.0206 49.3514L24.9607 45.9227C25.2368 45.9178 25.4567 45.6901 25.4519 45.414L25.4133 43.1997C25.4085 42.9236 25.1807 42.7037 24.9046 42.7085L24.8448 39.2798C25.1209 39.275 25.3408 39.0473 25.336 38.7712L25.2973 36.5569C25.2925 36.2808 25.0648 36.0609 24.7887 36.0657L24.7288 32.637C25.0049 32.6321 25.2248 32.4044 25.22 32.1283L25.2021 31.0994L25.4514 30.2737C25.5312 30.0093 25.3815 29.7303 25.1172 29.6505L25.9158 27.005C26.1802 27.0848 26.4592 26.9352 26.539 26.6708L27.0828 24.8694C27.1626 24.605 27.013 24.326 26.7487 24.2462L27.5473 21.6007C27.8117 21.6805 28.0907 21.5309 28.1705 21.2665L28.7143 19.4651C28.7941 19.2007 28.6445 18.9217 28.3801 18.8419L29.1788 16.1964C29.4431 16.2762 29.7221 16.1266 29.8019 15.8622L30.3458 14.0608C30.4256 13.7964 30.276 13.5174 30.0116 13.4376L30.8102 10.7921C31.0746 10.8719 31.3536 10.7223 31.4334 10.4579L31.6585 9.71215L32.4484 9.1098C32.668 8.94235 32.7103 8.6286 32.5428 8.40902L35.4219 6.21343C35.5894 6.43301 35.9031 6.47527 36.1227 6.30782L37.9599 4.90684C38.1794 4.73939 38.2217 4.42564 38.0543 4.20606L40.9334 2.01047Z" stroke="white" stroke-linecap="round" stroke-dasharray="2 4"/>
<path d="M3.01066 46.7375C3.2311 46.5711 3.27496 46.2576 3.10863 46.0372L2.63518 45.4097L3.06371 44.7507C3.21425 44.5192 3.14863 44.2095 2.91713 44.059L4.85056 41.0858C5.08205 41.2364 5.39176 41.1708 5.5423 40.9393L6.7816 39.0335C6.93214 38.802 6.86652 38.4923 6.63502 38.3418L8.56845 35.3687C8.79994 35.5192 9.10965 35.4536 9.26019 35.2221L9.79034 34.4068L10.4803 34.1474C10.7387 34.0502 10.8695 33.7619 10.7723 33.5034L13.2107 32.5865C13.3079 32.845 13.5962 32.9757 13.8547 32.8785L15.5419 32.2441C15.8004 32.1469 15.9311 31.8585 15.834 31.6001L18.2724 30.6831C18.3696 30.9416 18.6579 31.0724 18.9164 30.9752L20.6036 30.3407C20.8621 30.2435 20.9928 29.9552 20.8956 29.6967L23.334 28.7798C23.4312 29.0383 23.7196 29.169 23.978 29.0718L25.6652 28.4374C25.9237 28.3402 26.0545 28.0518 25.9573 27.7934L28.3957 26.8764C28.4929 27.1349 28.7812 27.2657 29.0397 27.1685L29.8066 26.8801L30.7799 26.8461C31.0559 26.8364 31.2718 26.6049 31.2622 26.3289L34.4834 26.2164C34.4931 26.4924 34.7246 26.7083 35.0006 26.6987L37.1109 26.625C37.3869 26.6154 37.6028 26.3838 37.5932 26.1079L40.8144 25.9954C40.8241 26.2713 41.0556 26.4872 41.3316 26.4776L43.4419 26.4039C43.7179 26.3943 43.9338 26.1627 43.9241 25.8868L47.1454 25.7743C47.1551 26.0503 47.3866 26.2662 47.6626 26.2565L49.7729 26.1828C50.0489 26.1732 50.2648 25.9417 50.2551 25.6657L53.4764 25.5532C53.486 25.8292 53.7176 26.0451 53.9935 26.0354L54.9669 26.0015L55.752 26.2356C56.0167 26.3146 56.2952 26.164 56.3741 25.8994L58.8705 26.644C58.7916 26.9086 58.9421 27.1871 59.2068 27.2661L60.9341 27.7813C61.1988 27.8602 61.4773 27.7097 61.5562 27.445L64.0526 28.1896C63.9737 28.4543 64.1242 28.7328 64.3889 28.8117L66.1162 29.3269C66.3809 29.4058 66.6594 29.2553 66.7383 28.9907L69.2347 29.7353C69.1558 29.9999 69.3063 30.2784 69.571 30.3573L71.2983 30.8725C71.563 30.9515 71.8415 30.8009 71.9204 30.5363L74.4168 31.2809C74.3379 31.5455 74.4884 31.824 74.7531 31.9029L75.4594 32.1136L76.0451 32.8899C76.2115 33.1103 76.525 33.1542 76.7454 32.9879L78.8815 35.8189C78.6611 35.9852 78.6172 36.2987 78.7836 36.5192L80.1528 38.3338C80.3191 38.5542 80.6326 38.5981 80.8531 38.4318L82.9892 41.2628C82.7688 41.4291 82.7249 41.7427 82.8912 41.9631L83.3647 42.5906L82.9361 43.2495C82.7856 43.481 82.8512 43.7907 83.0827 43.9413L81.1493 46.9144C80.9178 46.7639 80.6081 46.8295 80.4575 47.061L79.2182 48.9667C79.0677 49.1982 79.1333 49.5079 79.3648 49.6585L77.4314 52.6316C77.1999 52.4811 76.8902 52.5467 76.7396 52.7782L76.2095 53.5934L75.5196 53.8529C75.2611 53.9501 75.1304 54.2384 75.2276 54.4968L72.7891 55.4138C72.6919 55.1553 72.4036 55.0246 72.1451 55.1218L70.4579 55.7562C70.1994 55.8534 70.0687 56.1417 70.1659 56.4002L67.7275 57.3171C67.6303 57.0587 67.3419 56.9279 67.0835 57.0251L65.3963 57.6596C65.1378 57.7567 65.007 58.0451 65.1042 58.3035L62.6658 59.2205C62.5686 58.962 62.2803 58.8313 62.0218 58.9285L60.3346 59.5629C60.0761 59.6601 59.9454 59.9484 60.0426 60.2069L57.6042 61.1238C57.507 60.8653 57.2186 60.7346 56.9602 60.8318L56.1932 61.1202L55.2199 61.1542C54.9439 61.1638 54.728 61.3954 54.7377 61.6713L51.5164 61.7838C51.5068 61.5078 51.2752 61.2919 50.9993 61.3016L48.8889 61.3753C48.613 61.3849 48.3971 61.6164 48.4067 61.8924L45.1854 62.0049C45.1758 61.7289 44.9442 61.513 44.6683 61.5227L42.5579 61.5963C42.282 61.606 42.0661 61.8375 42.0757 62.1135L38.8544 62.226C38.8448 61.95 38.6133 61.7341 38.3373 61.7437L36.227 61.8174C35.951 61.8271 35.7351 62.0586 35.7447 62.3346L32.5234 62.4471C32.5138 62.1711 32.2823 61.9552 32.0063 61.9648L31.033 61.9988L30.2478 61.7646C29.9832 61.6857 29.7047 61.8362 29.6258 62.1008L27.1293 61.3562C27.2082 61.0916 27.0577 60.8131 26.7931 60.7342L25.0657 60.219C24.8011 60.1401 24.5226 60.2906 24.4437 60.5552L21.9472 59.8106C22.0261 59.546 21.8756 59.2675 21.611 59.1886L19.8836 58.6734C19.619 58.5944 19.3405 58.745 19.2616 59.0096L16.7651 58.265C16.844 58.0004 16.6935 57.7219 16.4289 57.6429L14.7015 57.1277C14.4369 57.0488 14.1584 57.1993 14.0795 57.464L11.583 56.7194C11.6619 56.4547 11.5114 56.1762 11.2468 56.0973L10.5404 55.8866L9.95471 55.1104C9.78838 54.8899 9.47485 54.8461 9.25442 55.0124L7.11831 52.1814C7.33874 52.0151 7.3826 51.7015 7.21628 51.4811L5.84706 49.6665C5.68074 49.446 5.36721 49.4022 5.14678 49.5685L3.01066 46.7375Z" stroke="white" stroke-linecap="round" stroke-dasharray="2 4"/>
</svg>
