<svg width="86" height="86" viewBox="0 0 86 86" fill="none" xmlns="http://www.w3.org/2000/svg">
<circle cx="43" cy="43" r="42.5" stroke="white"/>
<path d="M47.4728 56.9252C46.4904 56.9582 45.4983 56.9805 44.4975 56.9917C44.4949 56.716 44.2696 56.4943 43.9938 56.4963C43.6634 56.4988 43.3322 56.5 43 56.5C42.6678 56.5 42.3366 56.4988 42.0062 56.4963C41.7304 56.4943 41.5051 56.716 41.5025 56.9917C40.5017 56.9805 39.5096 56.9582 38.5272 56.9252C38.537 56.6496 38.3219 56.4181 38.0463 56.4078C37.3822 56.3829 36.7227 56.353 36.0683 56.3183C35.7929 56.3038 35.5577 56.5149 35.5426 56.7902C34.5409 56.7332 33.551 56.6649 32.5744 56.5857C32.5973 56.311 32.3934 56.0695 32.1186 56.046C31.4552 55.9895 30.7982 55.9279 30.1479 55.8614C29.8736 55.8333 29.6284 56.0327 29.5997 56.3068C28.5979 56.1999 27.6124 56.0814 26.6445 55.9517C26.6818 55.6786 26.491 55.4268 26.2179 55.3889C25.5565 55.2971 24.9038 55.2 24.2602 55.0979C23.9879 55.0546 23.7321 55.24 23.6882 55.5121C22.6879 55.3481 21.71 55.1718 20.7564 54.9837C20.8104 54.7136 20.6358 54.4505 20.3656 54.3956C19.709 54.2622 19.0644 54.1231 18.4326 53.9787C18.1639 53.9173 17.8963 54.0849 17.8341 54.3532C16.8408 54.1194 15.8794 53.8721 14.9525 53.6121C15.0278 53.3474 14.875 53.0714 14.6103 52.9949C13.9656 52.8087 13.3388 52.6162 12.7306 52.418C12.4688 52.3327 12.1874 52.4751 12.101 52.7362C11.1184 52.4057 10.1854 52.0595 9.30586 51.6989C9.4117 51.4454 9.29317 51.1537 9.04002 51.0461C8.41592 50.7809 7.82172 50.5085 7.2588 50.2295C7.01262 50.1075 6.71442 50.2071 6.59065 50.4518C5.64617 49.9636 4.79175 49.4552 4.03496 48.9288C4.19395 48.7072 4.14589 48.3982 3.9258 48.2355C3.37614 47.8292 2.88996 47.4154 2.46924 46.996C2.27645 46.8038 1.96606 46.8016 1.77052 46.9889C1.03091 46.1773 0.511222 45.3349 0.233909 44.4691C0.489806 44.401 0.649886 44.1433 0.59394 43.8815C0.531524 43.5894 0.499999 43.2956 0.499999 43C0.499999 42.7044 0.531524 42.4106 0.59394 42.1185C0.649887 41.8567 0.489807 41.599 0.233909 41.5309C0.511222 40.6651 1.03091 39.8227 1.77052 39.0111C1.96606 39.1984 2.27645 39.1962 2.46924 39.004C2.88996 38.5846 3.37614 38.1708 3.9258 37.7645C4.14589 37.6018 4.19395 37.2928 4.03497 37.0711C4.79176 36.5448 5.64618 36.0364 6.59066 35.5482C6.71442 35.7929 7.01262 35.8924 7.2588 35.7705C7.82172 35.4915 8.41593 35.2191 9.04002 34.9539C9.29318 34.8463 9.4117 34.5546 9.30586 34.3011C10.1854 33.9405 11.1184 33.5943 12.101 33.2638C12.1874 33.5249 12.4688 33.6673 12.7306 33.582C13.3388 33.3837 13.9656 33.1913 14.6103 33.0051C14.875 32.9286 15.0278 32.6526 14.9525 32.3878C15.8794 32.1279 16.8408 31.8806 17.8341 31.6468C17.8963 31.9151 18.1639 32.0827 18.4326 32.0213C19.0644 31.8769 19.709 31.7378 20.3656 31.6044C20.6358 31.5495 20.8104 31.2864 20.7564 31.0163C21.71 30.8282 22.6879 30.6519 23.6882 30.4879C23.7321 30.76 23.9879 30.9453 24.2602 30.9021C24.9038 30.8 25.5565 30.7029 26.2179 30.6111C26.491 30.5732 26.6818 30.3213 26.6445 30.0483C27.6124 29.9186 28.5979 29.8001 29.5997 29.6932C29.6284 29.9673 29.8736 30.1667 30.1479 30.1386C30.7982 30.0721 31.4553 30.0105 32.1186 29.9539C32.3934 29.9305 32.5973 29.689 32.5744 29.4143C33.5511 29.3351 34.5409 29.2668 35.5426 29.2098C35.5577 29.4851 35.7929 29.6962 36.0683 29.6816C36.7228 29.647 37.3822 29.6171 38.0463 29.5922C38.3219 29.5819 38.5371 29.3503 38.5272 29.0748C39.5096 29.0418 40.5017 29.0195 41.5025 29.0083C41.5051 29.284 41.7304 29.5057 42.0062 29.5037C42.3366 29.5012 42.6678 29.5 43 29.5C43.3322 29.5 43.6634 29.5012 43.9938 29.5037C44.2696 29.5057 44.4949 29.284 44.4975 29.0083C45.4983 29.0195 46.4904 29.0418 47.4728 29.0748C47.463 29.3503 47.6781 29.5819 47.9537 29.5922C48.6178 29.6171 49.2773 29.647 49.9317 29.6816C50.2071 29.6962 50.4423 29.4851 50.4574 29.2098C51.4591 29.2668 52.449 29.3351 53.4256 29.4143C53.4027 29.689 53.6066 29.9305 53.8814 29.9539C54.5447 30.0105 55.2018 30.0721 55.8521 30.1386C56.1264 30.1667 56.3716 29.9673 56.4003 29.6932C57.4021 29.8001 58.3876 29.9186 59.3555 30.0483C59.3182 30.3214 59.509 30.5732 59.7821 30.6111C60.4435 30.7029 61.0962 30.8 61.7398 30.9021C62.0121 30.9453 62.2679 30.76 62.3118 30.4879C63.3121 30.6519 64.29 30.8282 65.2436 31.0163C65.1896 31.2864 65.3642 31.5495 65.6344 31.6044C66.291 31.7378 66.9356 31.8769 67.5674 32.0213C67.8361 32.0827 68.1037 31.9151 68.1659 31.6468C69.1592 31.8806 70.1206 32.1279 71.0475 32.3878C70.9722 32.6526 71.125 32.9286 71.3897 33.0051C72.0344 33.1913 72.6612 33.3838 73.2694 33.582C73.5312 33.6673 73.8126 33.5249 73.899 33.2638C74.8816 33.5943 75.8146 33.9405 76.6941 34.3011C76.5883 34.5546 76.7068 34.8463 76.96 34.9539C77.5841 35.2191 78.1783 35.4915 78.7412 35.7705C78.9874 35.8925 79.2856 35.7929 79.4093 35.5482C80.3538 36.0364 81.2082 36.5448 81.965 37.0712C81.8061 37.2928 81.8541 37.6018 82.0742 37.7645C82.6239 38.1708 83.11 38.5846 83.5308 39.004C83.7235 39.1962 84.0339 39.1984 84.2295 39.0111C84.9691 39.8227 85.4888 40.6651 85.7661 41.5309C85.5102 41.599 85.3501 41.8567 85.4061 42.1185C85.4685 42.4106 85.5 42.7044 85.5 43C85.5 43.2956 85.4685 43.5894 85.4061 43.8815C85.3501 44.1433 85.5102 44.401 85.7661 44.4691C85.4888 45.3349 84.9691 46.1773 84.2295 46.9889C84.0339 46.8016 83.7235 46.8038 83.5308 46.996C83.11 47.4154 82.6238 47.8292 82.0742 48.2355C81.8541 48.3982 81.806 48.7072 81.965 48.9288C81.2082 49.4552 80.3538 49.9636 79.4093 50.4518C79.2856 50.2071 78.9874 50.1075 78.7412 50.2295C78.1783 50.5085 77.5841 50.7809 76.96 51.0461C76.7068 51.1537 76.5883 51.4454 76.6941 51.6989C75.8146 52.0595 74.8816 52.4057 73.899 52.7362C73.8126 52.4751 73.5312 52.3327 73.2694 52.418C72.6612 52.6162 72.0344 52.8087 71.3897 52.9949C71.125 53.0714 70.9722 53.3474 71.0475 53.6121C70.1206 53.8721 69.1592 54.1194 68.1659 54.3532C68.1037 54.0849 67.8361 53.9173 67.5674 53.9787C66.9356 54.1231 66.291 54.2622 65.6344 54.3956C65.3642 54.4505 65.1895 54.7136 65.2436 54.9837C64.29 55.1718 63.3121 55.3481 62.3118 55.5121C62.2679 55.24 62.0121 55.0546 61.7398 55.0979C61.0962 55.2 60.4435 55.2971 59.7821 55.3889C59.509 55.4268 59.3182 55.6786 59.3555 55.9517C58.3876 56.0814 57.4021 56.1999 56.4003 56.3068C56.3716 56.0327 56.1264 55.8333 55.8521 55.8614C55.2018 55.9279 54.5447 55.9895 53.8814 56.046C53.6066 56.0695 53.4027 56.311 53.4256 56.5857C52.4489 56.6649 51.4591 56.7332 50.4574 56.7902C50.4423 56.5149 50.2071 56.3038 49.9317 56.3183C49.2772 56.353 48.6178 56.3829 47.9537 56.4078C47.6781 56.4181 47.4629 56.6496 47.4728 56.9252Z" stroke="white" stroke-linecap="round" stroke-dasharray="2 4"/>
<circle cx="43" cy="57" r="4" fill="white"/>
</svg>
