<svg width="90" height="90" viewBox="0 0 90 90" fill="none" xmlns="http://www.w3.org/2000/svg">
<circle cx="45.0001" cy="45" r="42.5" transform="rotate(92.2733 45.0001 45)" stroke="white"/>
<path d="M43.83 74.4768C32.0548 74.0093 21.5481 70.2563 14.0791 64.592C6.60856 58.9265 2.21323 51.3834 2.53355 43.3142C2.85388 35.245 7.83332 28.074 15.7295 23.0185C23.6239 17.9641 34.3951 15.0558 46.1703 15.5232C57.9455 15.9907 68.4522 19.7437 75.9211 25.4079C83.3917 31.0735 87.787 38.6166 87.4667 46.6858C87.1463 54.755 82.1669 61.926 74.2707 66.9815C66.3763 72.0359 55.6051 74.9442 43.83 74.4768Z" stroke="white"/>
<path d="M44.4645 58.4895C32.6375 58.02 22.0126 56.0343 14.3992 53.2168C10.5898 51.8071 7.56178 50.1992 5.51464 48.4899C3.4607 46.7749 2.46566 45.022 2.53345 43.3143C2.60124 41.6067 3.7321 39.9381 5.91553 38.3914C8.09172 36.8497 11.2377 35.4869 15.1468 34.3836C22.9596 32.1785 33.7085 31.0413 45.5355 31.5108C57.3625 31.9803 67.9874 33.966 75.6008 36.7834C79.4102 38.1931 82.4382 39.8011 84.4854 41.5104C86.5393 43.2254 87.5343 44.9783 87.4666 46.6859C87.3988 48.3936 86.2679 50.0621 84.0845 51.6089C81.9083 53.1505 78.7623 54.5134 74.8532 55.6167C67.0404 57.8218 56.2915 58.959 44.4645 58.4895Z" stroke="white"/>
<path d="M31.5107 44.4645C31.9802 32.6375 33.966 22.0126 36.7834 14.3992C38.1931 10.5898 39.8011 7.56178 41.5104 5.51464C43.2254 3.4607 44.9783 2.46566 46.6859 2.53345C48.3936 2.60124 50.0621 3.7321 51.6089 5.91553C53.1505 8.09172 54.5134 11.2377 55.6167 15.1468C57.8217 22.9596 58.959 33.7085 58.4895 45.5355C58.02 57.3625 56.0342 67.9874 53.2168 75.6008C51.8071 79.4102 50.1992 82.4382 48.4898 84.4854C46.7749 86.5393 45.0219 87.5343 43.3143 87.4666C41.6066 87.3988 39.9381 86.2679 38.3914 84.0845C36.8497 81.9083 35.4868 78.7623 34.3835 74.8532C32.1785 67.0404 31.0412 56.2915 31.5107 44.4645Z" stroke="white"/>
</svg>
