<svg width="86" height="86" viewBox="0 0 86 86" fill="none" xmlns="http://www.w3.org/2000/svg">
<rect x="0.5" y="0.5" width="85" height="85" stroke="white"/>
<path d="M42.3285 1.34305C42.5755 1.46654 42.8758 1.36643 42.9993 1.11944L43 1.11803L43.0007 1.11947C43.1242 1.36646 43.4245 1.46657 43.6715 1.34307L45.016 4.03198C44.769 4.15547 44.6689 4.45581 44.7924 4.7028L45.6882 6.49446C45.8117 6.74145 46.112 6.84156 46.359 6.71807L47.7035 9.40698C47.4565 9.53047 47.3564 9.83081 47.4799 10.0778L48.3757 11.8695C48.4992 12.1165 48.7995 12.2166 49.0465 12.0931L50.391 14.782C50.144 14.9055 50.0439 15.2058 50.1674 15.4528L51.0632 17.2445C51.1867 17.4914 51.487 17.5916 51.734 17.4681L53.0785 20.157C52.8315 20.2805 52.7314 20.5808 52.8549 20.8278L53.7507 22.6195C53.8742 22.8664 54.1745 22.9666 54.4215 22.8431L55.766 25.532C55.519 25.6555 55.4189 25.9558 55.5424 26.2028L56.4382 27.9945C56.5617 28.2414 56.862 28.3416 57.109 28.2181L58.4535 30.907C58.2065 31.0305 58.1064 31.3308 58.2299 31.5778L59.1257 33.3695C59.2492 33.6164 59.5495 33.7166 59.7965 33.5931L61.141 36.282C60.894 36.4055 60.7939 36.7058 60.9174 36.9528L61.8132 38.7444C61.9367 38.9914 62.237 39.0915 62.484 38.9681L63.8285 41.657C63.5815 41.7805 63.4814 42.0808 63.6049 42.3278L64.5007 44.1194C64.6242 44.3664 64.9245 44.4665 65.1715 44.3431L66.516 47.032C66.269 47.1555 66.1689 47.4558 66.2924 47.7028L67.1882 49.4944C67.3117 49.7414 67.612 49.8415 67.859 49.7181L69.2035 52.407C68.9565 52.5304 68.8564 52.8308 68.9799 53.0778L69.8757 54.8694C69.9992 55.1164 70.2995 55.2165 70.5465 55.093L71.891 57.782C71.644 57.9054 71.5439 58.2058 71.6674 58.4528L72.5632 60.2444C72.6867 60.4914 72.987 60.5915 73.234 60.468L74.5785 63.157C74.3315 63.2804 74.2314 63.5808 74.3549 63.8278L75.2507 65.6194C75.3742 65.8664 75.6745 65.9665 75.9215 65.843L77.266 68.532C77.019 68.6554 76.9189 68.9558 77.0424 69.2028L77.9382 70.9944C78.0617 71.2414 78.362 71.3415 78.609 71.218L79.9535 73.907C79.7065 74.0304 79.6064 74.3308 79.7299 74.5778L80.6257 76.3694C80.7492 76.6164 81.0495 76.7165 81.2965 76.593L82.641 79.282C82.394 79.4054 82.2939 79.7058 82.4174 79.9528L83.3132 81.7444C83.4367 81.9914 83.737 82.0915 83.984 81.968L85.3285 84.657C85.0815 84.7804 84.9814 85.0808 85.1049 85.3278L85.191 85.5H84.9762C84.7001 85.5 84.4762 85.7239 84.4762 86H81.381C81.381 85.7239 81.1571 85.5 80.881 85.5H78.8333C78.5572 85.5 78.3333 85.7239 78.3333 86H75.2381C75.2381 85.7239 75.0142 85.5 74.7381 85.5H72.6905C72.4143 85.5 72.1905 85.7239 72.1905 86H69.0952C69.0952 85.7239 68.8714 85.5 68.5952 85.5H66.5476C66.2715 85.5 66.0476 85.7239 66.0476 86H62.9524C62.9524 85.7239 62.7285 85.5 62.4524 85.5H60.4048C60.1286 85.5 59.9048 85.7239 59.9048 86H56.8095C56.8095 85.7239 56.5857 85.5 56.3095 85.5H54.2619C53.9858 85.5 53.7619 85.7239 53.7619 86H50.6667C50.6667 85.7239 50.4428 85.5 50.1667 85.5H48.119C47.8429 85.5 47.619 85.7239 47.619 86H44.5238C44.5238 85.7239 44.2999 85.5 44.0238 85.5H41.9762C41.7 85.5 41.4762 85.7239 41.4762 86H38.381C38.381 85.7239 38.1571 85.5 37.881 85.5H35.8333C35.5572 85.5 35.3333 85.7239 35.3333 86H32.2381C32.2381 85.7239 32.0142 85.5 31.7381 85.5H29.6905C29.4143 85.5 29.1905 85.7239 29.1905 86H26.0952C26.0952 85.7239 25.8714 85.5 25.5952 85.5H23.5476C23.2715 85.5 23.0476 85.7239 23.0476 86H19.9524C19.9524 85.7239 19.7285 85.5 19.4524 85.5H17.4048C17.1286 85.5 16.9048 85.7239 16.9048 86H13.8095C13.8095 85.7239 13.5857 85.5 13.3095 85.5H11.2619C10.9858 85.5 10.7619 85.7239 10.7619 86H7.66667C7.66667 85.7239 7.44281 85.5 7.16667 85.5H5.11905C4.84291 85.5 4.61905 85.7239 4.61905 86H1.52381C1.52381 85.7239 1.29995 85.5 1.02381 85.5H0.809016L0.895144 85.3277C1.01864 85.0808 0.918526 84.7804 0.671537 84.6569L2.01599 81.968C2.26298 82.0915 2.56331 81.9914 2.68681 81.7444L3.58264 79.9528C3.70614 79.7058 3.60602 79.4054 3.35903 79.2819L4.70349 76.593C4.95048 76.7165 5.25081 76.6164 5.37431 76.3694L6.27014 74.5778C6.39364 74.3308 6.29352 74.0304 6.04653 73.9069L7.39099 71.218C7.63798 71.3415 7.93831 71.2414 8.06181 70.9944L8.95764 69.2028C9.08113 68.9558 8.98102 68.6554 8.73403 68.5319L10.0785 65.843C10.3255 65.9665 10.6258 65.8664 10.7493 65.6194L11.6451 63.8278C11.7686 63.5808 11.6685 63.2804 11.4215 63.1569L12.766 60.468C13.013 60.5915 13.3133 60.4914 13.4368 60.2444L14.3326 58.4528C14.4561 58.2058 14.356 57.9054 14.109 57.7819L15.4535 55.093C15.7005 55.2165 16.0008 55.1164 16.1243 54.8694L17.0201 53.0778C17.1436 52.8308 17.0435 52.5304 16.7965 52.4069L18.141 49.718C18.388 49.8415 18.6883 49.7414 18.8118 49.4944L19.7076 47.7028C19.8311 47.4558 19.731 47.1554 19.484 47.0319L20.8285 44.343C21.0755 44.4665 21.3758 44.3664 21.4993 44.1194L22.3951 42.3278C22.5186 42.0808 22.4185 41.7804 22.1715 41.6569L23.516 38.968C23.763 39.0915 24.0633 38.9914 24.1868 38.7444L25.0826 36.9528C25.2061 36.7058 25.106 36.4054 24.859 36.2819L26.2035 33.593C26.4505 33.7165 26.7508 33.6164 26.8743 33.3694L27.7701 31.5778C27.8936 31.3308 27.7935 31.0304 27.5465 30.907L28.891 28.218C29.138 28.3415 29.4383 28.2414 29.5618 27.9944L30.4576 26.2028C30.5811 25.9558 30.481 25.6554 30.234 25.532L31.5785 22.843C31.8255 22.9665 32.1258 22.8664 32.2493 22.6194L33.1451 20.8278C33.2686 20.5808 33.1685 20.2804 32.9215 20.157L34.266 17.468C34.513 17.5915 34.8133 17.4914 34.9368 17.2444L35.8326 15.4528C35.9561 15.2058 35.856 14.9054 35.609 14.782L36.9535 12.093C37.2005 12.2165 37.5008 12.1164 37.6243 11.8694L38.5201 10.0778C38.6436 9.83078 38.5435 9.53045 38.2965 9.40695L39.641 6.71805C39.888 6.84154 40.1883 6.74143 40.3118 6.49444L41.2076 4.70277C41.3311 4.45578 41.231 4.15545 40.984 4.03195L42.3285 1.34305Z" stroke="white" stroke-linecap="round" stroke-dasharray="2 4"/>
<circle cx="43" cy="59" r="26.5" stroke="white" stroke-linecap="round" stroke-dasharray="2 4"/>
</svg>
